<?xml version="1.0" encoding="UTF-8" standalone="no"?>
<!DOCTYPE svg PUBLIC "-//W3C//DTD SVG 1.1//EN"
 "http://www.w3.org/Graphics/SVG/1.1/DTD/svg11.dtd">
<!-- Generated by graphviz version 2.43.0 (0)
 -->
<!-- Title: CLVizulayer Pages: 1 -->
<svg width="501pt" height="1210pt"
 viewBox="0.00 0.00 501.00 1209.93" xmlns="http://www.w3.org/2000/svg" xmlns:xlink="http://www.w3.org/1999/xlink">
<g id="graph0" class="graph" transform="scale(1 1) rotate(0) translate(4 1205.93)">
<title>CLVizulayer</title>
<polygon fill="white" stroke="transparent" points="-4,4 -4,-1205.93 497,-1205.93 497,4 -4,4"/>
<g id="clust1" class="cluster">
<title>cluster_0</title>
<polygon fill="none" stroke="black" points="44,-903.2 44,-1193.93 348,-1193.93 348,-903.2 44,-903.2"/>
<text text-anchor="middle" x="196" y="-1178.73" font-family="Times,serif" font-size="14.00">clEnqueueWriteBuffer()</text>
</g>
<g id="clust2" class="cluster">
<title>cluster_1</title>
<polygon fill="none" stroke="black" points="31,-579.47 31,-870.2 335,-870.2 335,-579.47 31,-579.47"/>
<text text-anchor="middle" x="183" y="-855" font-family="Times,serif" font-size="14.00">clEnqueueWriteBuffer()</text>
</g>
<g id="clust3" class="cluster">
<title>cluster_2</title>
<polygon fill="none" stroke="black" points="8,-317.73 8,-546.47 340,-546.47 340,-317.73 8,-317.73"/>
<text text-anchor="middle" x="174" y="-531.27" font-family="Times,serif" font-size="14.00">clWaitForEvents()</text>
</g>
<g id="clust4" class="cluster">
<title>cluster_3</title>
<polygon fill="none" stroke="black" points="161,-8 161,-298.73 465,-298.73 465,-8 161,-8"/>
<text text-anchor="middle" x="313" y="-283.53" font-family="Times,serif" font-size="14.00">clEnqueueReadBuffer()</text>
</g>
<!-- node_0 -->
<g id="node1" class="node">
<title>node_0</title>
<ellipse fill="none" stroke="black" stroke-width="2" cx="196" cy="-1037.06" rx="143.59" ry="125.73"/>
<text text-anchor="middle" x="196" y="-1110.86" font-family="Times,serif" font-size="14.00">clEnqueueWriteBuffer</text>
<text text-anchor="middle" x="196" y="-1079.86" font-family="Times,serif" font-size="14.00">blocking = True</text>
<text text-anchor="middle" x="196" y="-1048.86" font-family="Times,serif" font-size="14.00">buffer = 0x5c01e69826a0</text>
<text text-anchor="middle" x="196" y="-1017.86" font-family="Times,serif" font-size="14.00">offset = 0</text>
<text text-anchor="middle" x="196" y="-986.86" font-family="Times,serif" font-size="14.00">size = 4000</text>
<text text-anchor="middle" x="196" y="-955.86" font-family="Times,serif" font-size="14.00">ptr = 0x5c01e63120c0</text>
</g>
<!-- node_1 -->
<g id="node2" class="node">
<title>node_1</title>
<ellipse fill="none" stroke="black" stroke-width="2" cx="183" cy="-713.33" rx="143.59" ry="125.73"/>
<text text-anchor="middle" x="183" y="-787.13" font-family="Times,serif" font-size="14.00">clEnqueueWriteBuffer</text>
<text text-anchor="middle" x="183" y="-756.13" font-family="Times,serif" font-size="14.00">blocking = True</text>
<text text-anchor="middle" x="183" y="-725.13" font-family="Times,serif" font-size="14.00">buffer = 0x5c01e6317530</text>
<text text-anchor="middle" x="183" y="-694.13" font-family="Times,serif" font-size="14.00">offset = 0</text>
<text text-anchor="middle" x="183" y="-663.13" font-family="Times,serif" font-size="14.00">size = 4</text>
<text text-anchor="middle" x="183" y="-632.13" font-family="Times,serif" font-size="14.00">ptr = 0x5c01e7869810</text>
</g>
<!-- node_0&#45;&gt;node_1 -->
<g id="edge1" class="edge">
<title>node_0&#45;&gt;node_1</title>
<path fill="none" stroke="black" d="M181.25,-911.85C180.76,-905.55 180.34,-899.3 180,-893.2 179.21,-879.09 178.8,-864.34 178.65,-849.63"/>
<polygon fill="black" stroke="black" points="182.15,-849.45 178.59,-839.47 175.15,-849.49 182.15,-849.45"/>
</g>
<!-- node_0&#45;&gt;node_1 -->
<g id="edge2" class="edge">
<title>node_0&#45;&gt;node_1</title>
<path fill="none" stroke="black" d="M190.63,-903.2C190.32,-895.59 190.01,-887.9 189.7,-880.19"/>
<polygon fill="black" stroke="black" points="193.2,-880.05 189.3,-870.2 186.2,-880.33 193.2,-880.05"/>
<text text-anchor="middle" x="255.5" y="-882" font-family="Times,serif" font-size="14.00">blocking host wait</text>
</g>
<!-- node_2 -->
<g id="node3" class="node">
<title>node_2</title>
<ellipse fill="none" stroke="black" stroke-width="2" cx="174" cy="-477.28" rx="157.87" ry="38.37"/>
<text text-anchor="middle" x="174" y="-489.08" font-family="Times,serif" font-size="14.00">clEnqueueNDRangeKernel</text>
<text text-anchor="middle" x="174" y="-458.08" font-family="Times,serif" font-size="14.00">cl_kernel = 0x5c01e7a6e520</text>
</g>
<!-- node_1&#45;&gt;node_2 -->
<g id="edge3" class="edge">
<title>node_1&#45;&gt;node_2</title>
<path fill="none" stroke="black" d="M171.31,-587.87C170.92,-576.58 170.79,-565.32 171,-554.47 171.18,-545.14 171.49,-535.17 171.85,-525.62"/>
<polygon fill="black" stroke="black" points="175.35,-525.6 172.24,-515.47 168.36,-525.33 175.35,-525.6"/>
</g>
<!-- node_1&#45;&gt;node_2 -->
<g id="edge6" class="edge">
<title>node_1&#45;&gt;node_2</title>
<path fill="none" stroke="black" d="M177.89,-579.47C177.59,-571.73 177.3,-564.08 177.01,-556.66"/>
<polygon fill="black" stroke="black" points="180.5,-556.32 176.62,-546.46 173.51,-556.59 180.5,-556.32"/>
<text text-anchor="middle" x="243.5" y="-558.27" font-family="Times,serif" font-size="14.00">blocking host wait</text>
</g>
<!-- node_3 -->
<g id="node4" class="node">
<title>node_3</title>
<ellipse fill="none" stroke="black" stroke-width="2" cx="174" cy="-363.91" rx="156.96" ry="38.37"/>
<text text-anchor="middle" x="174" y="-375.71" font-family="Times,serif" font-size="14.00">clEnqueueNDRangeKernel</text>
<text text-anchor="middle" x="174" y="-344.71" font-family="Times,serif" font-size="14.00">cl_kernel = 0x5c01e7a128c0</text>
</g>
<!-- node_2&#45;&gt;node_3 -->
<g id="edge4" class="edge">
<title>node_2&#45;&gt;node_3</title>
<path fill="none" stroke="black" d="M167.58,-438.89C167.26,-430.44 167.17,-421.36 167.31,-412.55"/>
<polygon fill="black" stroke="black" points="170.82,-412.49 167.58,-402.4 163.82,-412.3 170.82,-412.49"/>
</g>
<!-- node_2&#45;&gt;node_3 -->
<g id="edge5" class="edge">
<title>node_2&#45;&gt;node_3</title>
<path fill="none" stroke="black" d="M180.42,-438.89C180.74,-430.44 180.83,-421.36 180.69,-412.55"/>
<polygon fill="black" stroke="black" points="184.18,-412.3 180.42,-402.4 177.18,-412.49 184.18,-412.3"/>
</g>
<!-- node_4 -->
<g id="node5" class="node">
<title>node_4</title>
<ellipse fill="none" stroke="black" stroke-width="2" cx="313" cy="-141.87" rx="143.59" ry="125.73"/>
<text text-anchor="middle" x="313" y="-215.67" font-family="Times,serif" font-size="14.00">clEnqueueReadBuffer</text>
<text text-anchor="middle" x="313" y="-184.67" font-family="Times,serif" font-size="14.00">blocking = True</text>
<text text-anchor="middle" x="313" y="-153.67" font-family="Times,serif" font-size="14.00">buffer = 0x5c01e6317530</text>
<text text-anchor="middle" x="313" y="-122.67" font-family="Times,serif" font-size="14.00">offset = 0</text>
<text text-anchor="middle" x="313" y="-91.67" font-family="Times,serif" font-size="14.00">size = 4</text>
<text text-anchor="middle" x="313" y="-60.67" font-family="Times,serif" font-size="14.00">ptr = 0x5c01e7869810</text>
</g>
<!-- node_2&#45;&gt;node_4 -->
<g id="edge8" class="edge">
<title>node_2&#45;&gt;node_4</title>
<path fill="none" stroke="black" d="M340,-402.1C357.88,-374.53 363.44,-341.74 362.24,-308.91"/>
<polygon fill="black" stroke="black" points="365.72,-308.51 361.65,-298.73 358.73,-308.91 365.72,-308.51"/>
<text text-anchor="middle" x="427.5" y="-360.21" font-family="Times,serif" font-size="14.00">blocking host wait</text>
</g>
<!-- node_3&#45;&gt;node_4 -->
<g id="edge7" class="edge">
<title>node_3&#45;&gt;node_4</title>
<path fill="none" stroke="black" d="M197.27,-326.08C208.76,-307.89 223.34,-284.8 238.25,-261.2"/>
<polygon fill="black" stroke="black" points="241.37,-262.81 243.75,-252.49 235.45,-259.08 241.37,-262.81"/>
</g>
</g>
</svg>
