<?xml version="1.0" encoding="UTF-8" standalone="no"?>
<!DOCTYPE svg PUBLIC "-//W3C//DTD SVG 1.1//EN"
 "http://www.w3.org/Graphics/SVG/1.1/DTD/svg11.dtd">
<!-- Generated by graphviz version 2.42.4 (0)
 -->
<!-- Title: CLVizulayer Pages: 1 -->
<svg width="594pt" height="243pt"
 viewBox="0.00 0.00 594.00 243.00" xmlns="http://www.w3.org/2000/svg" xmlns:xlink="http://www.w3.org/1999/xlink">
<g id="graph0" class="graph" transform="scale(1 1) rotate(0) translate(4 239)">
<title>CLVizulayer</title>
<polygon fill="white" stroke="transparent" points="-4,4 -4,-239 590,-239 590,4 -4,4"/>
<g id="clust1" class="cluster">
<title>cluster_0</title>
<polygon fill="none" stroke="black" points="8,-8 8,-227 578,-227 578,-8 8,-8"/>
<text text-anchor="middle" x="293" y="-211.8" font-family="Times,serif" font-size="14.00">clFinish()</text>
</g>
<!-- node_0 -->
<g id="node1" class="node">
<title>node_0</title>
<ellipse fill="none" stroke="black" stroke-width="2" cx="293" cy="-178" rx="133.78" ry="18"/>
<text text-anchor="middle" x="293" y="-174.3" font-family="Times,serif" font-size="14.00">clEnqueueNDRangeKernel</text>
</g>
<!-- node_1 -->
<g id="node2" class="node">
<title>node_1</title>
<ellipse fill="none" stroke="black" stroke-width="2" cx="150" cy="-106" rx="133.78" ry="18"/>
<text text-anchor="middle" x="150" y="-102.3" font-family="Times,serif" font-size="14.00">clEnqueueNDRangeKernel</text>
</g>
<!-- node_0&#45;&gt;node_1 -->
<g id="edge1" class="edge">
<title>node_0&#45;&gt;node_1</title>
<path fill="none" stroke="black" d="M259.11,-160.41C239.25,-150.69 213.99,-138.32 192.77,-127.94"/>
<polygon fill="black" stroke="black" points="194.17,-124.72 183.65,-123.47 191.09,-131.01 194.17,-124.72"/>
</g>
<!-- node_2 -->
<g id="node3" class="node">
<title>node_2</title>
<ellipse fill="none" stroke="black" stroke-width="2" cx="436" cy="-106" rx="133.78" ry="18"/>
<text text-anchor="middle" x="436" y="-102.3" font-family="Times,serif" font-size="14.00">clEnqueueNDRangeKernel</text>
</g>
<!-- node_0&#45;&gt;node_2 -->
<g id="edge2" class="edge">
<title>node_0&#45;&gt;node_2</title>
<path fill="none" stroke="black" d="M326.89,-160.41C346.75,-150.69 372.01,-138.32 393.23,-127.94"/>
<polygon fill="black" stroke="black" points="394.91,-131.01 402.35,-123.47 391.83,-124.72 394.91,-131.01"/>
</g>
<!-- node_3 -->
<g id="node4" class="node">
<title>node_3</title>
<ellipse fill="none" stroke="black" stroke-width="2" cx="293" cy="-34" rx="133.78" ry="18"/>
<text text-anchor="middle" x="293" y="-30.3" font-family="Times,serif" font-size="14.00">clEnqueueNDRangeKernel</text>
</g>
<!-- node_1&#45;&gt;node_3 -->
<g id="edge3" class="edge">
<title>node_1&#45;&gt;node_3</title>
<path fill="none" stroke="black" d="M183.89,-88.41C203.75,-78.69 229.01,-66.32 250.23,-55.94"/>
<polygon fill="black" stroke="black" points="251.91,-59.01 259.35,-51.47 248.83,-52.72 251.91,-59.01"/>
</g>
<!-- node_2&#45;&gt;node_3 -->
<g id="edge4" class="edge">
<title>node_2&#45;&gt;node_3</title>
<path fill="none" stroke="black" d="M402.11,-88.41C382.25,-78.69 356.99,-66.32 335.77,-55.94"/>
<polygon fill="black" stroke="black" points="337.17,-52.72 326.65,-51.47 334.09,-59.01 337.17,-52.72"/>
</g>
</g>
</svg>
