<?xml version="1.0" encoding="UTF-8" standalone="no"?>
<!DOCTYPE svg PUBLIC "-//W3C//DTD SVG 1.1//EN"
 "http://www.w3.org/Graphics/SVG/1.1/DTD/svg11.dtd">
<!-- Generated by graphviz version 2.43.0 (0)
 -->
<!-- Title: CLVizulayer Pages: 1 -->
<svg width="328pt" height="1286pt"
 viewBox="0.00 0.00 328.00 1285.92" xmlns="http://www.w3.org/2000/svg" xmlns:xlink="http://www.w3.org/1999/xlink">
<g id="graph0" class="graph" transform="scale(1 1) rotate(0) translate(4 1281.92)">
<title>CLVizulayer</title>
<polygon fill="white" stroke="transparent" points="-4,4 -4,-1281.92 324,-1281.92 324,4 -4,4"/>
<g id="clust1" class="cluster">
<title>cluster_0</title>
<polygon fill="none" stroke="black" points="8,-979.19 8,-1269.92 312,-1269.92 312,-979.19 8,-979.19"/>
<text text-anchor="middle" x="160" y="-1254.72" font-family="Times,serif" font-size="14.00">clEnqueueWriteBuffer()</text>
</g>
<g id="clust2" class="cluster">
<title>cluster_1</title>
<polygon fill="none" stroke="black" points="8,-655.46 8,-946.19 312,-946.19 312,-655.46 8,-655.46"/>
<text text-anchor="middle" x="160" y="-930.99" font-family="Times,serif" font-size="14.00">clEnqueueWriteBuffer()</text>
</g>
<g id="clust3" class="cluster">
<title>cluster_2</title>
<polygon fill="none" stroke="black" points="9,-331.73 9,-622.46 309,-622.46 309,-331.73 9,-331.73"/>
<text text-anchor="middle" x="159" y="-607.26" font-family="Times,serif" font-size="14.00">clEnqueueWriteBuffer()</text>
</g>
<g id="clust4" class="cluster">
<title>cluster_3</title>
<polygon fill="none" stroke="black" points="11,-8 11,-298.73 301,-298.73 301,-8 11,-8"/>
<text text-anchor="middle" x="156" y="-283.53" font-family="Times,serif" font-size="14.00">clEnqueueWriteBuffer()</text>
</g>
<!-- node_0 -->
<g id="node1" class="node">
<title>node_0</title>
<ellipse fill="none" stroke="black" stroke-width="2" cx="160" cy="-1113.06" rx="143.59" ry="125.73"/>
<text text-anchor="middle" x="160" y="-1186.86" font-family="Times,serif" font-size="14.00">clEnqueueWriteBuffer</text>
<text text-anchor="middle" x="160" y="-1155.86" font-family="Times,serif" font-size="14.00">blocking = True</text>
<text text-anchor="middle" x="160" y="-1124.86" font-family="Times,serif" font-size="14.00">buffer = 0x57b749aedbc0</text>
<text text-anchor="middle" x="160" y="-1093.86" font-family="Times,serif" font-size="14.00">offset = 0</text>
<text text-anchor="middle" x="160" y="-1062.86" font-family="Times,serif" font-size="14.00">size = 136640</text>
<text text-anchor="middle" x="160" y="-1031.86" font-family="Times,serif" font-size="14.00">ptr = 0x7fc108738010</text>
</g>
<!-- node_1 -->
<g id="node2" class="node">
<title>node_1</title>
<ellipse fill="none" stroke="black" stroke-width="2" cx="160" cy="-789.33" rx="144.5" ry="125.73"/>
<text text-anchor="middle" x="160" y="-863.13" font-family="Times,serif" font-size="14.00">clEnqueueWriteBuffer</text>
<text text-anchor="middle" x="160" y="-832.13" font-family="Times,serif" font-size="14.00">blocking = True</text>
<text text-anchor="middle" x="160" y="-801.13" font-family="Times,serif" font-size="14.00">buffer = 0x57b749b8a4e0</text>
<text text-anchor="middle" x="160" y="-770.13" font-family="Times,serif" font-size="14.00">offset = 0</text>
<text text-anchor="middle" x="160" y="-739.13" font-family="Times,serif" font-size="14.00">size = 520</text>
<text text-anchor="middle" x="160" y="-708.13" font-family="Times,serif" font-size="14.00">ptr = 0x57b749ae56d0</text>
</g>
<!-- node_0&#45;&gt;node_1 -->
<g id="edge1" class="edge">
<title>node_0&#45;&gt;node_1</title>
<path fill="none" stroke="black" d="M158.15,-987C158.09,-980.98 158.04,-975.02 158,-969.19 157.9,-955.06 157.9,-940.3 157.97,-925.59"/>
<polygon fill="black" stroke="black" points="161.47,-925.43 158.02,-915.42 154.47,-925.4 161.47,-925.43"/>
</g>
<!-- node_0&#45;&gt;node_1 -->
<g id="edge2" class="edge">
<title>node_0&#45;&gt;node_1</title>
<path fill="none" stroke="black" d="M160,-979.19C160,-971.65 160,-964.03 160,-956.39"/>
<polygon fill="black" stroke="black" points="163.5,-956.19 160,-946.19 156.5,-956.19 163.5,-956.19"/>
<text text-anchor="middle" x="225.5" y="-957.99" font-family="Times,serif" font-size="14.00">blocking host wait</text>
</g>
<!-- node_2 -->
<g id="node3" class="node">
<title>node_2</title>
<ellipse fill="none" stroke="black" stroke-width="2" cx="159" cy="-465.6" rx="142.26" ry="125.73"/>
<text text-anchor="middle" x="159" y="-539.4" font-family="Times,serif" font-size="14.00">clEnqueueWriteBuffer</text>
<text text-anchor="middle" x="159" y="-508.4" font-family="Times,serif" font-size="14.00">blocking = True</text>
<text text-anchor="middle" x="159" y="-477.4" font-family="Times,serif" font-size="14.00">buffer = 0x57b74b0feb80</text>
<text text-anchor="middle" x="159" y="-446.4" font-family="Times,serif" font-size="14.00">offset = 0</text>
<text text-anchor="middle" x="159" y="-415.4" font-family="Times,serif" font-size="14.00">size = 163392</text>
<text text-anchor="middle" x="159" y="-384.4" font-family="Times,serif" font-size="14.00">ptr = 0x7fc100530010</text>
</g>
<!-- node_1&#45;&gt;node_2 -->
<g id="edge3" class="edge">
<title>node_1&#45;&gt;node_2</title>
<path fill="none" stroke="black" d="M157.22,-663.28C157.14,-657.25 157.06,-651.29 157,-645.46 156.85,-631.33 156.82,-616.57 156.87,-601.86"/>
<polygon fill="black" stroke="black" points="160.37,-601.7 156.91,-591.69 153.37,-601.67 160.37,-601.7"/>
</g>
<!-- node_1&#45;&gt;node_2 -->
<g id="edge4" class="edge">
<title>node_1&#45;&gt;node_2</title>
<path fill="none" stroke="black" d="M159.59,-655.46C159.56,-647.92 159.54,-640.3 159.52,-632.66"/>
<polygon fill="black" stroke="black" points="163.02,-632.45 159.48,-622.46 156.02,-632.47 163.02,-632.45"/>
<text text-anchor="middle" x="224.5" y="-634.26" font-family="Times,serif" font-size="14.00">blocking host wait</text>
</g>
<!-- node_3 -->
<g id="node4" class="node">
<title>node_3</title>
<ellipse fill="none" stroke="black" stroke-width="2" cx="156" cy="-141.87" rx="137.36" ry="125.73"/>
<text text-anchor="middle" x="156" y="-215.67" font-family="Times,serif" font-size="14.00">clEnqueueWriteBuffer</text>
<text text-anchor="middle" x="156" y="-184.67" font-family="Times,serif" font-size="14.00">blocking = True</text>
<text text-anchor="middle" x="156" y="-153.67" font-family="Times,serif" font-size="14.00">buffer = 0x57b74b0ffdf0</text>
<text text-anchor="middle" x="156" y="-122.67" font-family="Times,serif" font-size="14.00">offset = 0</text>
<text text-anchor="middle" x="156" y="-91.67" font-family="Times,serif" font-size="14.00">size = 360</text>
<text text-anchor="middle" x="156" y="-60.67" font-family="Times,serif" font-size="14.00">ptr = 0x57b74ae43730</text>
</g>
<!-- node_2&#45;&gt;node_3 -->
<g id="edge5" class="edge">
<title>node_2&#45;&gt;node_3</title>
<path fill="none" stroke="black" d="M155.3,-339.55C155.18,-333.52 155.08,-327.56 155,-321.73 154.8,-307.6 154.71,-292.85 154.68,-278.13"/>
<polygon fill="black" stroke="black" points="158.18,-277.96 154.68,-267.96 151.18,-277.96 158.18,-277.96"/>
</g>
<!-- node_2&#45;&gt;node_3 -->
<g id="edge6" class="edge">
<title>node_2&#45;&gt;node_3</title>
<path fill="none" stroke="black" d="M157.76,-331.73C157.69,-324.19 157.62,-316.57 157.55,-308.93"/>
<polygon fill="black" stroke="black" points="161.05,-308.7 157.45,-298.73 154.05,-308.76 161.05,-308.7"/>
<text text-anchor="middle" x="223.5" y="-310.53" font-family="Times,serif" font-size="14.00">blocking host wait</text>
</g>
</g>
</svg>
