<?xml version="1.0" encoding="UTF-8" standalone="no"?>
<!DOCTYPE svg PUBLIC "-//W3C//DTD SVG 1.1//EN"
 "http://www.w3.org/Graphics/SVG/1.1/DTD/svg11.dtd">
<!-- Generated by graphviz version 2.42.4 (0)
 -->
<!-- Title: CLVizulayer Pages: 1 -->
<svg width="557pt" height="903pt"
 viewBox="0.00 0.00 557.00 903.00" xmlns="http://www.w3.org/2000/svg" xmlns:xlink="http://www.w3.org/1999/xlink">
<g id="graph0" class="graph" transform="scale(1 1) rotate(0) translate(4 899)">
<title>CLVizulayer</title>
<polygon fill="white" stroke="transparent" points="-4,4 -4,-899 553,-899 553,4 -4,4"/>
<g id="clust1" class="cluster">
<title>cluster_0</title>
<polygon fill="none" stroke="black" points="263,-812 263,-887 537,-887 537,-812 263,-812"/>
<text text-anchor="middle" x="400" y="-871.8" font-family="Times,serif" font-size="14.00">clWaitForEvents()</text>
</g>
<g id="clust2" class="cluster">
<title>cluster_1</title>
<polygon fill="none" stroke="black" points="141,-485 141,-779 463,-779 463,-485 141,-485"/>
<text text-anchor="middle" x="302" y="-763.8" font-family="Times,serif" font-size="14.00">clWaitForEvents()</text>
</g>
<g id="clust3" class="cluster">
<title>cluster_2</title>
<polygon fill="none" stroke="black" points="141,-391 141,-466 415,-466 415,-391 141,-391"/>
<text text-anchor="middle" x="278" y="-450.8" font-family="Times,serif" font-size="14.00">clWaitForEvents()</text>
</g>
<g id="clust4" class="cluster">
<title>cluster_3</title>
<polygon fill="none" stroke="black" points="217,-283 217,-358 491,-358 491,-283 217,-283"/>
<text text-anchor="middle" x="354" y="-342.8" font-family="Times,serif" font-size="14.00">clWaitForEvents()</text>
</g>
<g id="clust5" class="cluster">
<title>cluster_4</title>
<polygon fill="none" stroke="black" points="217,-102 217,-250 491,-250 491,-102 217,-102"/>
<text text-anchor="middle" x="354" y="-234.8" font-family="Times,serif" font-size="14.00">clWaitForEvents()</text>
</g>
<g id="clust6" class="cluster">
<title>cluster_5</title>
<polygon fill="none" stroke="black" points="217,-8 217,-83 491,-83 491,-8 217,-8"/>
<text text-anchor="middle" x="354" y="-67.8" font-family="Times,serif" font-size="14.00">clWaitForEvents()</text>
</g>
<!-- node_1 -->
<g id="node1" class="node">
<title>node_1</title>
<ellipse fill="aliceblue" stroke="aliceblue" cx="400" cy="-838" rx="128.88" ry="18"/>
<text text-anchor="middle" x="400" y="-834.3" font-family="Times,serif" font-size="14.00">clEnqueueMemcpyINTEL</text>
</g>
<!-- node_0 -->
<g id="node2" class="node">
<title>node_0</title>
<ellipse fill="aqua" stroke="aqua" cx="283" cy="-730" rx="133.78" ry="18"/>
<text text-anchor="middle" x="283" y="-726.3" font-family="Times,serif" font-size="14.00">clEnqueueNDRangeKernel</text>
</g>
<!-- node_1&#45;&gt;node_0 -->
<g id="edge6" class="edge">
<title>node_1&#45;&gt;node_0</title>
<path fill="none" stroke="black" d="M311.19,-812C307.13,-809.03 303.35,-805.71 300,-802 296.44,-798.06 293.59,-793.5 291.31,-788.64"/>
<polygon fill="black" stroke="black" points="294.46,-787.07 287.6,-779 287.93,-789.59 294.46,-787.07"/>
<text text-anchor="middle" x="365.5" y="-790.8" font-family="Times,serif" font-size="14.00">blocking host wait</text>
</g>
<!-- node_3 -->
<g id="node4" class="node">
<title>node_3</title>
<ellipse fill="aliceblue" stroke="aliceblue" cx="302" cy="-584" rx="153.27" ry="18"/>
<text text-anchor="middle" x="302" y="-580.3" font-family="Times,serif" font-size="14.00">clEnqueueBarrierWithWaitList</text>
</g>
<!-- node_1&#45;&gt;node_3 -->
<g id="edge3" class="edge">
<title>node_1&#45;&gt;node_3</title>
<path fill="none" stroke="black" d="M419.26,-820.19C424.01,-814.9 428.47,-808.68 431,-802 447.11,-759.52 578.12,-862.83 426,-639 415.21,-623.12 398.67,-611.88 381.14,-603.93"/>
<polygon fill="black" stroke="black" points="382.49,-600.7 371.92,-600.07 379.79,-607.16 382.49,-600.7"/>
</g>
<!-- node_2 -->
<g id="node3" class="node">
<title>node_2</title>
<ellipse fill="aqua" stroke="aqua" cx="283" cy="-657" rx="133.78" ry="18"/>
<text text-anchor="middle" x="283" y="-653.3" font-family="Times,serif" font-size="14.00">clEnqueueNDRangeKernel</text>
</g>
<!-- node_0&#45;&gt;node_2 -->
<g id="edge1" class="edge">
<title>node_0&#45;&gt;node_2</title>
<path fill="none" stroke="black" d="M283,-711.81C283,-703.79 283,-694.05 283,-685.07"/>
<polygon fill="black" stroke="black" points="286.5,-685.03 283,-675.03 279.5,-685.03 286.5,-685.03"/>
</g>
<!-- node_5 -->
<g id="node6" class="node">
<title>node_5</title>
<ellipse fill="aliceblue" stroke="aliceblue" cx="278" cy="-417" rx="128.88" ry="18"/>
<text text-anchor="middle" x="278" y="-413.3" font-family="Times,serif" font-size="14.00">clEnqueueMemcpyINTEL</text>
</g>
<!-- node_0&#45;&gt;node_5 -->
<g id="edge9" class="edge">
<title>node_0&#45;&gt;node_5</title>
<path fill="none" stroke="black" d="M141,-717.75C70.42,-708.09 0,-690.34 0,-658 0,-658 0,-658 0,-510 0,-478.69 64.36,-456.21 131.14,-441.31"/>
<polygon fill="black" stroke="black" points="131.97,-444.72 141,-439.17 130.49,-437.87 131.97,-444.72"/>
<text text-anchor="middle" x="65.5" y="-580.3" font-family="Times,serif" font-size="14.00">blocking host wait</text>
</g>
<!-- node_2&#45;&gt;node_3 -->
<g id="edge2" class="edge">
<title>node_2&#45;&gt;node_3</title>
<path fill="none" stroke="black" d="M287.6,-638.81C289.77,-630.7 292.41,-620.84 294.83,-611.78"/>
<polygon fill="black" stroke="black" points="298.24,-612.59 297.44,-602.03 291.48,-610.78 298.24,-612.59"/>
</g>
<!-- node_4 -->
<g id="node5" class="node">
<title>node_4</title>
<ellipse fill="aliceblue" stroke="aliceblue" cx="278" cy="-511" rx="128.88" ry="18"/>
<text text-anchor="middle" x="278" y="-507.3" font-family="Times,serif" font-size="14.00">clEnqueueMemcpyINTEL</text>
</g>
<!-- node_3&#45;&gt;node_4 -->
<g id="edge4" class="edge">
<title>node_3&#45;&gt;node_4</title>
<path fill="none" stroke="black" d="M290.31,-565.81C286.72,-557.7 283.16,-547.84 280.49,-538.78"/>
<polygon fill="black" stroke="black" points="283.85,-537.79 277.89,-529.03 277.08,-539.59 283.85,-537.79"/>
</g>
<!-- node_3&#45;&gt;node_4 -->
<g id="edge5" class="edge">
<title>node_3&#45;&gt;node_4</title>
<path fill="none" stroke="black" d="M302.07,-565.81C300.16,-557.62 297,-547.62 293.51,-538.48"/>
<polygon fill="black" stroke="black" points="296.66,-536.95 289.62,-529.03 290.18,-539.61 296.66,-536.95"/>
</g>
<!-- node_3&#45;&gt;node_5 -->
<g id="edge8" class="edge">
<title>node_3&#45;&gt;node_5</title>
<path fill="none" stroke="black" d="M365.26,-567.53C384.93,-559.42 404.46,-547.23 416,-529 426.46,-512.48 426.38,-501.57 416,-485 401.46,-461.78 376.33,-446.4 351.46,-436.32"/>
<polygon fill="black" stroke="black" points="352.56,-432.99 341.96,-432.7 350.07,-439.53 352.56,-432.99"/>
</g>
<!-- node_6 -->
<g id="node7" class="node">
<title>node_6</title>
<ellipse fill="aliceblue" stroke="aliceblue" cx="354" cy="-309" rx="128.88" ry="18"/>
<text text-anchor="middle" x="354" y="-305.3" font-family="Times,serif" font-size="14.00">clEnqueueMemcpyINTEL</text>
</g>
<!-- node_3&#45;&gt;node_6 -->
<g id="edge11" class="edge">
<title>node_3&#45;&gt;node_6</title>
<path fill="none" stroke="black" d="M387.87,-569.04C407.46,-561.05 424.9,-548.55 433,-529 445.07,-499.86 423.52,-401.34 419,-391 409.71,-369.76 393.36,-349.42 379.38,-334.43"/>
<polygon fill="black" stroke="black" points="381.79,-331.89 372.33,-327.11 376.74,-336.74 381.79,-331.89"/>
</g>
<!-- node_7 -->
<g id="node8" class="node">
<title>node_7</title>
<ellipse fill="aliceblue" stroke="aliceblue" cx="354" cy="-201" rx="128.88" ry="18"/>
<text text-anchor="middle" x="354" y="-197.3" font-family="Times,serif" font-size="14.00">clEnqueueMemcpyINTEL</text>
</g>
<!-- node_3&#45;&gt;node_7 -->
<g id="edge14" class="edge">
<title>node_3&#45;&gt;node_7</title>
<path fill="none" stroke="black" d="M228.64,-568.14C178.47,-555.8 121,-536.35 121,-512 121,-512 121,-512 121,-308 121,-251.81 177.83,-225.27 235.36,-212.79"/>
<polygon fill="black" stroke="black" points="236.24,-216.19 245.34,-210.77 234.85,-209.33 236.24,-216.19"/>
</g>
<!-- node_8 -->
<g id="node9" class="node">
<title>node_8</title>
<ellipse fill="aliceblue" stroke="aliceblue" cx="354" cy="-128" rx="128.88" ry="18"/>
<text text-anchor="middle" x="354" y="-124.3" font-family="Times,serif" font-size="14.00">clEnqueueMemcpyINTEL</text>
</g>
<!-- node_3&#45;&gt;node_8 -->
<g id="edge16" class="edge">
<title>node_3&#45;&gt;node_8</title>
<path fill="none" stroke="black" d="M390.63,-569.25C447.6,-557.81 511,-539.02 511,-512 511,-512 511,-512 511,-200 511,-170.7 488.03,-153.43 459.65,-143.27"/>
<polygon fill="black" stroke="black" points="460.44,-139.85 449.85,-140.09 458.28,-146.51 460.44,-139.85"/>
</g>
<!-- node_9 -->
<g id="node10" class="node">
<title>node_9</title>
<ellipse fill="aliceblue" stroke="aliceblue" cx="354" cy="-34" rx="128.88" ry="18"/>
<text text-anchor="middle" x="354" y="-30.3" font-family="Times,serif" font-size="14.00">clEnqueueMemcpyINTEL</text>
</g>
<!-- node_3&#45;&gt;node_9 -->
<g id="edge19" class="edge">
<title>node_3&#45;&gt;node_9</title>
<path fill="none" stroke="black" d="M411.06,-571.27C477.22,-561.01 549,-542.79 549,-512 549,-512 549,-512 549,-127 549,-82.97 507.84,-59.98 463.33,-47.99"/>
<polygon fill="black" stroke="black" points="464.05,-44.56 453.5,-45.52 462.35,-51.35 464.05,-44.56"/>
</g>
<!-- node_4&#45;&gt;node_5 -->
<g id="edge7" class="edge">
<title>node_4&#45;&gt;node_5</title>
<path fill="none" stroke="black" d="M278,-492.7C278,-479.46 278,-460.95 278,-445.66"/>
<polygon fill="black" stroke="black" points="281.5,-445.23 278,-435.23 274.5,-445.23 281.5,-445.23"/>
</g>
<!-- node_5&#45;&gt;node_6 -->
<g id="edge10" class="edge">
<title>node_5&#45;&gt;node_6</title>
<path fill="none" stroke="black" d="M349.7,-401.81C359.64,-396.82 368.62,-390.08 375,-381 384.33,-367.71 379.34,-350.25 371.89,-335.97"/>
<polygon fill="black" stroke="black" points="374.8,-334.02 366.76,-327.12 368.75,-337.52 374.8,-334.02"/>
</g>
<!-- node_5&#45;&gt;node_6 -->
<g id="edge12" class="edge">
<title>node_5&#45;&gt;node_6</title>
<path fill="none" stroke="black" d="M244.72,-391C239.89,-384.6 237.45,-376.9 241.06,-367.05"/>
<polygon fill="black" stroke="black" points="244.26,-368.48 245.76,-358 238.05,-365.26 244.26,-368.48"/>
<text text-anchor="middle" x="305.5" y="-369.8" font-family="Times,serif" font-size="14.00">blocking host wait</text>
</g>
<!-- node_6&#45;&gt;node_7 -->
<g id="edge13" class="edge">
<title>node_6&#45;&gt;node_7</title>
<path fill="none" stroke="black" d="M345.67,-290.95C343.36,-285.36 341.16,-279.04 340,-273 337.21,-258.5 339.93,-242.34 343.7,-229.11"/>
<polygon fill="black" stroke="black" points="347.15,-229.8 346.85,-219.21 340.48,-227.67 347.15,-229.8"/>
</g>
<!-- node_6&#45;&gt;node_7 -->
<g id="edge17" class="edge">
<title>node_6&#45;&gt;node_7</title>
<path fill="none" stroke="black" d="M354,-283C354,-276.09 354,-268.29 354,-260.33"/>
<polygon fill="black" stroke="black" points="357.5,-260 354,-250 350.5,-260 357.5,-260"/>
<text text-anchor="middle" x="419.5" y="-261.8" font-family="Times,serif" font-size="14.00">blocking host wait</text>
</g>
<!-- node_7&#45;&gt;node_8 -->
<g id="edge15" class="edge">
<title>node_7&#45;&gt;node_8</title>
<path fill="none" stroke="black" d="M354,-182.81C354,-174.79 354,-165.05 354,-156.07"/>
<polygon fill="black" stroke="black" points="357.5,-156.03 354,-146.03 350.5,-156.03 357.5,-156.03"/>
</g>
<!-- node_7&#45;&gt;node_9 -->
<g id="edge20" class="edge">
<title>node_7&#45;&gt;node_9</title>
<path fill="none" stroke="black" d="M217,-188.48C159.82,-180.56 102.57,-167.45 85,-146 40.84,-92.09 122.36,-64.05 206.95,-49.65"/>
<polygon fill="black" stroke="black" points="207.7,-53.08 217,-48.01 206.57,-46.17 207.7,-53.08"/>
<text text-anchor="middle" x="150.5" y="-124.3" font-family="Times,serif" font-size="14.00">blocking host wait</text>
</g>
<!-- node_8&#45;&gt;node_9 -->
<g id="edge18" class="edge">
<title>node_8&#45;&gt;node_9</title>
<path fill="none" stroke="black" d="M354,-109.7C354,-96.46 354,-77.95 354,-62.66"/>
<polygon fill="black" stroke="black" points="357.5,-62.23 354,-52.23 350.5,-62.23 357.5,-62.23"/>
</g>
</g>
</svg>
